<?xml version="1.0" encoding="utf-8"?>
<!-- Generator: Adobe Illustrator 16.0.3, SVG Export Plug-In . SVG Version: 6.00 Build 0)  -->
<!DOCTYPE svg PUBLIC "-//W3C//DTD SVG 1.1//EN" "http://www.w3.org/Graphics/SVG/1.1/DTD/svg11.dtd">
<svg version="1.1" id="Layer_1" xmlns="http://www.w3.org/2000/svg" xmlns:xlink="http://www.w3.org/1999/xlink" x="0px" y="0px"
	 width="1092.72px" height="246.686px" viewBox="0 0 1092.72 246.686" enable-background="new 0 0 1092.72 246.686"
	 xml:space="preserve">
<g>
	<defs>
		<rect id="SVGID_1_" width="1092.722" height="246.686"/>
	</defs>
	<clipPath id="SVGID_2_">
		<use xlink:href="#SVGID_1_"  overflow="visible"/>
	</clipPath>
	<path clip-path="url(#SVGID_2_)" fill="#231F20" d="M693.293,237.841c-3.9,3.88-8.566,5.868-14.037,5.976
		c-5.471,0.109-10.146-1.792-14.029-5.686c-4.121-4.145-6.096-8.946-5.961-14.399c0.133-5.471,2.134-10.135,6.041-14.021
		c3.896-3.88,8.582-5.876,14.039-5.959c5.473-0.113,10.258,1.89,14.381,6.033c3.877,3.894,5.754,8.571,5.611,14.055
		C699.209,229.298,697.179,233.961,693.293,237.841"/>
	<path clip-path="url(#SVGID_2_)" d="M134.525,1.831c4.446,0.888,7.853,3.184,10.229,6.889c2.37,3.713,3.113,7.636,2.22,11.785
		L90.051,231.448c-0.887,3.558-2.819,6.526-5.777,8.896c-2.969,2.375-6.229,3.554-9.784,3.554h-0.889h-1.336
		c-3.556,0-6.821-1.179-9.78-3.554c-2.969-2.369-4.748-5.338-5.337-8.896L0.364,20.414c-0.888-4.145-0.153-8.069,2.224-11.78
		c2.367-3.708,5.627-6.006,9.781-6.894c4.149-0.888,8.074-0.067,11.787,2.446c3.702,2.524,6,5.858,6.891,10.004l42.554,154.269
		l42.693-154.178c0.89-4.149,3.113-7.483,6.669-10.006C126.523,1.758,130.369,0.942,134.525,1.831"/>
	<path clip-path="url(#SVGID_2_)" d="M239.789,246.305c-22.529,0-40.169-7.109-52.913-21.343
		c-9.783-10.672-16.007-24.752-18.674-42.241c-0.89-5.332-1.337-9.93-1.337-13.787c0-3.85-0.301-6.512,0-8.001V80.038
		c0-13.632,2.591-25.491,6.894-35.571c4.293-10.075,9.852-18.456,16.672-25.128c6.816-6.664,14.524-11.554,23.124-14.669
		C222.151,1.559,230.895,0,239.789,0c5.337,0,12.597,1.039,21.79,3.114c9.182,2.074,18.23,6.972,27.122,14.672
		c2.961,2.671,5.928,5.783,8.892,9.343c2.961,3.552,5.628,7.931,8.005,13.115c2.371,5.187,4.369,11.045,6.002,17.563
		c1.629,6.523,2.446,13.934,2.446,22.231v84.008v7.337c0,3.71-0.445,8.084-1.336,13.116c-2.966,16.311-9.337,29.792-19.116,40.464
		C280.251,239.196,262.313,246.305,239.789,246.305 M198.435,162.709v4.893c0,2.964,0.292,6.526,0.891,10.677
		c0.59,4.15,1.702,8.599,3.335,13.333c1.626,4.749,4.223,8.896,7.782,12.451c6.515,7.116,16.299,10.673,29.346,10.673
		c13.34,0,23.565-3.7,30.682-11.111c3.258-3.567,5.778-7.486,7.559-11.79c1.779-4.295,3.035-8.371,3.778-12.23
		c0.738-3.849,1.113-7.108,1.113-9.78v-4.442v-0.891V80.038c0-11.26-1.778-20.074-5.337-26.458
		c-3.558-6.372-7.711-11.183-12.451-14.451c-4.743-3.256-9.559-5.334-14.449-6.222c-4.894-0.89-8.526-1.339-10.895-1.339
		c-10.97,0-20.161,3.412-27.57,10.23c-9.19,8.6-13.784,21.345-13.784,38.24v81.342V162.709z"/>
	<path clip-path="url(#SVGID_2_)" d="M445.724,243.821h-75.707c-4.153,0-7.782-1.558-10.891-4.67
		c-3.113-3.111-4.675-6.738-4.675-10.895V16.849c0-4.149,1.562-7.784,4.675-10.894c3.109-3.114,6.738-4.67,10.891-4.67
		c4.447,0,8.148,1.556,11.113,4.67c2.961,3.11,4.448,6.745,4.448,10.894v195.404h60.146c4.148,0,7.778,1.559,10.889,4.67
		c3.114,3.107,4.671,6.887,4.671,11.334c0,4.156-1.557,7.783-4.671,10.895C453.501,242.263,449.872,243.821,445.724,243.821"/>
	<path clip-path="url(#SVGID_2_)" d="M552.01,246.686c-22.234,0-39.729-7.119-52.471-21.343
		c-10.083-11.271-16.308-25.346-18.674-42.251c-0.89-5.333-1.336-9.925-1.336-13.783v-8V16.849c0-4.149,1.559-7.785,4.67-10.894
		c3.114-3.115,6.741-4.67,10.892-4.67c4.448,0,8.227,1.555,11.339,4.67c3.112,3.109,4.67,6.745,4.67,10.894V161.75v1.335
		c0,3.87-0.438,6.816,1.123,15.569c0.735,4.15,1.925,8.599,3.56,13.338c1.623,4.744,4.068,8.891,7.334,12.448
		c6.516,7.118,15.844,10.666,28.893,10.666c13.634,0,24.009-3.7,31.128-11.111c3.255-3.559,5.58-6.36,7.354-10.665
		c1.776-4.289,2.965-8.515,3.559-12.666c0.891-4.447,1.381-10.168,1.09-14.907v-1.336V17.292c0-4.448,1.558-8.228,4.67-11.337
		c3.117-3.115,6.892-4.67,11.334-4.67c4.146,0,7.787,1.555,10.895,4.67c3.111,3.109,4.67,6.889,4.67,11.337v147.129
		c0,1.192-0.079,3.636-0.222,7.337c-0.153,3.711-0.664,8.084-1.555,13.119c-2.671,16.308-9.048,29.794-19.126,40.466
		C592.76,239.567,574.831,246.686,552.01,246.686"/>
	<path clip-path="url(#SVGID_2_)" d="M1088.057,216.922c3.112,3.107,4.665,6.887,4.665,11.334c0,4.156-1.553,7.783-4.665,10.895
		c-3.118,3.112-6.897,4.67-11.34,4.67h-95.83c-4.447,0-8.228-1.558-11.339-4.67c-3.112-3.111-4.671-6.738-4.671-16.271V13.792
		c0-6.409,4.636-12.507,12.774-12.507h99.065c4.442,0,8.222,1.556,11.34,4.67c3.112,3.11,4.665,6.746,4.665,10.895
		c0,4.443-1.553,8.22-4.665,11.334c-3.118,3.119-6.897,4.673-11.34,4.673h-80.271v72.84h54.931c4.438,0,8.143,1.558,11.111,4.67
		c2.963,3.112,4.447,6.892,4.447,11.339c0,4.151-1.484,7.777-4.447,10.889c-2.969,3.113-6.674,4.671-11.111,4.671h-54.931v74.987
		h80.271C1081.159,212.252,1084.938,213.811,1088.057,216.922"/>
	<path clip-path="url(#SVGID_2_)" d="M923.375,16.078c0-8.365-6.658-15.146-15.023-15.146c-6.661,0-12.367,4.895-14.238,8.699
		c-0.242,0.491-0.428,0.995-0.616,1.512c-0.007,0.019,0.002,0.039-0.005,0.058l-59.16,130.071L775.168,11.201
		c-0.008-0.019-0.011-0.039-0.017-0.058c-0.189-0.517-0.406-1.021-0.646-1.512c-1.87-3.804-7.638-8.699-14.299-8.699
		c-8.366,0-14.989,6.781-14.989,15.146c0,0,0.158-18.682,0.158,209.754v2.425c0,4.156,1.715,7.783,4.678,10.895
		c2.966,3.112,6.496,4.67,10.943,4.67c4.152,0,7.675-1.558,10.781-4.67c3.121-3.111,4.598-6.738,4.598-10.895V82.208l43.377,99.158
		c2.563,7.185,8.601,10.61,14.576,10.635c5.978-0.024,12.067-3.45,14.63-10.635l43.417-99.158v146.048
		c0,4.156,1.561,7.783,4.682,10.895c3.107,3.112,6.742,4.67,10.893,4.67c4.449,0,8.163-1.558,11.126-4.67
		c2.965-3.111,4.3-6.738,4.3-10.895V16.078z"/>
</g>
</svg>
