<?xml version="1.0" encoding="utf-8"?>
<!-- Generator: Adobe Illustrator 16.0.3, SVG Export Plug-In . SVG Version: 6.00 Build 0)  -->
<!DOCTYPE svg PUBLIC "-//W3C//DTD SVG 1.1//EN" "http://www.w3.org/Graphics/SVG/1.1/DTD/svg11.dtd">
<svg version="1.1" id="Layer_1" xmlns="http://www.w3.org/2000/svg" xmlns:xlink="http://www.w3.org/1999/xlink" x="0px" y="0px"
	 width="421.237px" height="295.07px" viewBox="0 0 421.237 295.07" enable-background="new 0 0 421.237 295.07"
	 xml:space="preserve">
<g>
	<defs>
		<rect id="SVGID_1_" width="421.237" height="295.07"/>
	</defs>
	<clipPath id="SVGID_2_">
		<use xlink:href="#SVGID_1_"  overflow="visible"/>
	</clipPath>
	<path clip-path="url(#SVGID_2_)" fill="#1A1A1A" d="M212.938,197.879c-3.635,1.607-7.676,2.973-7.676,2.973
		c-1.865,0.63-2.685,2.592-1.823,4.36l13.065,26.817c0.862,1.769,1.498,3.249,1.415,3.289c-0.083,0.041,1.368-0.457,3.226-1.107
		c0,0,3.646-1.276,7.283-2.762c2.659-1.121,4.571-2.063,4.571-2.063c1.766-0.87,2.508-3.031,1.653-4.804l-13.016-26.934
		c-0.855-1.771-2.993-2.496-4.75-1.61C216.887,196.04,215.376,196.8,212.938,197.879"/>
	<path clip-path="url(#SVGID_2_)" fill="#1A1A1A" d="M180.264,205.871c-1.96,0.173-2.846,1.754-1.968,3.517l13.828,27.76
		c0.878,1.762,1.367,3.316,1.088,3.455c-0.28,0.14,1.084,0.019,3.031-0.269l14.239-2.869c1.908-0.479,2.764-2.319,1.903-4.089
		l-13.146-26.981c-0.862-1.77-3.146-2.901-5.075-2.518L180.264,205.871z"/>
	<path clip-path="url(#SVGID_2_)" fill="#1A1A1A" d="M119.778,188.52l-5.788-5.118c-0.875-0.671-1.248-0.641-1.248,0.67
		c1.551,5.843,16.1,28.024,24.922,36.845c1.43,1.432,6.319,7.035,5.246,3.816l-15.658-27.311
		C125.024,193.373,121.389,190.019,119.778,188.52"/>
	<path clip-path="url(#SVGID_2_)" fill="#1A1A1A" d="M272.702,131.965c-0.723-1.831-2.208-2.055-2.564-0.12
		c0,0-0.687,4.511-2.385,9.301c-0.655,1.849,0.091,3.34,0.596,4.471l12.539,27.976c0.802,1.796,1.919,1.723,2.482-0.162l1.94-8.139
		c0.377-1.932,0.208-2.206-0.298-3.458L272.702,131.965z"/>
	<path clip-path="url(#SVGID_2_)" fill="#1A1A1A" d="M266.405,151.725c-0.803-1.796-2.188-1.829-3.074-0.073l-4.585,8.075
		c-1.426,2.286-0.532,4.553,0.025,6.048l13.121,25.728c0.895,1.753,2.472,1.817,3.505,0.143c0,0,1.233-1.997,2.579-4.62
		c0.87-1.697,0.942-1.854,0.942-1.854c1.414-2.29,0.46-4.198-0.396-6.349L266.405,151.725z"/>
	<path clip-path="url(#SVGID_2_)" fill="#1A1A1A" d="M284.864,152.056c0.683,2.149,1.336,0.94,1.157-1.02
		c-1.49-16.393-4.771-22.459-13.551-39.022c-0.921-1.739-1.524-1.866-1.343-0.283c0.181,1.581,1.289,10.15,2.021,11.976
		C273.148,123.708,280.035,139.357,284.864,152.056"/>
	<path clip-path="url(#SVGID_2_)" fill="#1A1A1A" d="M324.869,122.812c-14.375-31.732-45.228-51.492-79.318-60.185
		c-7.011-1.787-6.259,3.512-3.052,5.332c20.545,11.661,35.971,40.63,43.095,60.918c6.708,19.103,6.516,40.008-3.798,60.108
		c-1.002,1.953-2.32,3.745-3.23,5.754c-0.677,1.496-2.03,4.004,0.993,6.185l32.595,23.503c2.443,1.762,4.367,1.945,6.19-1.227
		C336.195,192.116,339.599,155.326,324.869,122.812"/>
	<path clip-path="url(#SVGID_2_)" fill="#1A1A1A" d="M153.005,207.233l14.65,28.969c0.888,1.755,3.204,3.445,5.147,3.755
		l12.918,1.088c1.967,0.03,2.859-1.387,1.982-3.147l-14.18-28.465c-0.878-1.763-3.204-3.252-5.171-3.313
		C157.765,205.795,150.619,202.515,153.005,207.233"/>
	<path clip-path="url(#SVGID_2_)" fill="#1A1A1A" d="M226.871,190.445c-1.664,1.049-2.326,3.356-1.47,5.129l13.027,26.96
		c0.856,1.771,2.919,2.362,4.583,1.313l9.58-6.658c1.561-1.197,2.123-3.617,1.248-5.379l-13.262-26.701
		c-0.875-1.762-2.877-2.234-4.447-1.048L226.871,190.445z"/>
	<path clip-path="url(#SVGID_2_)" fill="#1A1A1A" d="M133.199,197.337c-1.753-0.893-2.412-0.214-1.464,1.511l15.795,28.737
		c0.947,1.725,3.099,3.97,4.781,4.989c0,0,2.562,1.555,5.487,2.888c1.91,0.871,2.485,1.081,2.485,1.081
		c1.847,0.678,2.632-0.206,1.744-1.962l-14.559-28.789C145.168,201.246,139.018,200.304,133.199,197.337"/>
	<path clip-path="url(#SVGID_2_)" fill="#1A1A1A" d="M244.897,176.509c-1.404,1.378-1.838,3.946-0.962,5.708l13.236,26.653
		c0.875,1.762,2.723,2.057,4.104,0.657l7.214-8.052c1.24-1.527,1.524-4.211,0.631-5.964l-13.281-26.035
		c-0.893-1.752-2.668-1.962-3.944-0.465L244.897,176.509z"/>
	<path clip-path="url(#SVGID_2_)" fill="#1A1A1A" d="M230.073,235.415c-16.491,6.732-31.36,10.093-44.851,10.094
		c-10.536,0-20.23-2.049-29.205-6.14c-30.756-14.021-47.447-49.866-58.303-81.792l0.12-0.041c-1.904-5.776-2.5-14.025-2.5-23.425
		c0-3.338-2.624-3.1-4.174,0c-13.355,26.721-19.849,64.162-5.036,96.859c26.283,58.021,101.034,80.84,166.962,50.975
		c24.769-11.222,44.097-28.766,58.687-48.291c1.408-1.886,0.455-4.031-0.954-4.896l-35.021-25.254
		c-0.562-0.562-2.798-0.472-3.978,0.852C260.563,216.991,246.896,228.327,230.073,235.415"/>
	<path clip-path="url(#SVGID_2_)" fill="#1A1A1A" d="M260.257,90.392c-0.075-0.141-0.157-0.278-0.233-0.418
		c-0.145-0.23-0.273-0.428-0.361-0.557l0.035-0.024c-8.028-14.256-23.304-23.366-35.958-26.541c-1.699-0.626-2.638,0.85-1.028,1.386
		c51.091,17.03,52.569,95.027-14.347,123.222c-0.746,0.315-1.492,0.619-2.241,0.912c-11.22,4.405-22.681,6.498-33.67,6.498
		c-9.199,0-18.066-1.467-26.179-4.275c-1.16-0.4-2.304-0.83-3.431-1.285c-37.268-15.055-47.936-55.048-27.198-88.613
		c0.586-1.045-0.741-1.671-1.62-0.777c-2.379,2.418-5.255,7.142-6.722,9.735c-0.369,0.653-0.713,1.318-1.05,1.985
		c-1.25,2.47-2.33,4.972-3.242,7.492c-4.293,11.87-4.827,24.167-1.532,35.661c0.524,1.83,1.14,3.64,1.86,5.424
		c5.054,12.549,14.426,23.229,27.104,30.715c12.479,7.371,27.286,11.357,42.82,11.357h0.007c13.049,0,25.809-2.808,37.93-8.168
		c25.373-11.224,44.406-30.726,52.213-53.429C269.404,123.276,268.282,105.372,260.257,90.392"/>
	<path clip-path="url(#SVGID_2_)" fill="#1A1A1A" d="M40.511,217.058c-12.997,3.577-25.994,7.154-38.991,10.731
		c-2.665,0.733-1.532,4.875,1.142,4.14c12.996-3.577,25.994-7.154,38.991-10.731C44.317,220.463,43.185,216.324,40.511,217.058"/>
	<path clip-path="url(#SVGID_2_)" fill="#1A1A1A" d="M46.079,275.582c-3.935,2.624-7.87,5.247-11.804,7.87
		c-2.291,1.527-0.145,5.247,2.165,3.707c3.935-2.623,7.87-5.247,11.805-7.87C50.536,277.762,48.39,274.042,46.079,275.582"/>
	<path clip-path="url(#SVGID_2_)" fill="#1A1A1A" d="M18.545,166.902c4.531,0.119,9.062,0.239,13.593,0.357
		c2.77,0.072,2.763-4.22,0-4.293c-4.531-0.118-9.062-0.238-13.593-0.357C15.775,162.537,15.783,166.829,18.545,166.902"/>
	<path clip-path="url(#SVGID_2_)" fill="#1A1A1A" d="M92.863,67.901c2.061,1.832,5.108-1.192,3.035-3.035
		c-3.219-2.861-6.439-5.723-9.658-8.585c-2.061-1.832-5.108,1.193-3.035,3.035C86.424,62.178,89.644,65.04,92.863,67.901"/>
	<path clip-path="url(#SVGID_2_)" fill="#1A1A1A" d="M208.134,21.67c0.12-4.174,0.238-8.347,0.358-12.52
		c0.079-2.77-4.214-2.762-4.293,0c-0.119,4.173-0.238,8.346-0.357,12.52C203.762,24.44,208.055,24.432,208.134,21.67"/>
	<path clip-path="url(#SVGID_2_)" fill="#1A1A1A" d="M321.616,45.008c2.624-2.862,5.247-5.724,7.87-8.585
		c1.866-2.036-1.161-5.08-3.035-3.035c-2.623,2.862-5.247,5.724-7.869,8.585C316.715,44.009,319.742,47.052,321.616,45.008"/>
	<path clip-path="url(#SVGID_2_)" fill="#1A1A1A" d="M387.92,136.062c4.77-0.834,9.539-1.669,14.309-2.504
		c2.723-0.476,1.565-4.613-1.142-4.139c-4.77,0.834-9.538,1.669-14.31,2.504C384.056,132.399,385.214,136.536,387.92,136.062"/>
	<path clip-path="url(#SVGID_2_)" fill="#1A1A1A" d="M385.193,66.678c-12.162,6.915-24.324,13.831-36.487,20.747
		c-2.407,1.368-0.243,5.077,2.166,3.706c12.162-6.915,24.325-13.831,36.487-20.747C389.766,69.016,387.604,65.307,385.193,66.678"/>
	<path clip-path="url(#SVGID_2_)" fill="#1A1A1A" d="M419.186,196.234c-15.023-1.669-30.048-3.339-45.071-5.008
		c-2.749-0.305-2.72,3.991,0,4.293c15.023,1.669,30.048,3.339,45.071,5.008C421.936,200.833,421.906,196.537,419.186,196.234"/>
	<path clip-path="url(#SVGID_2_)" fill="#1A1A1A" d="M262.788,35.475c4.53-10.969,9.063-21.939,13.593-32.909
		c1.057-2.559-3.098-3.662-4.139-1.141c-4.531,10.97-9.063,21.94-13.595,32.91C257.592,36.894,261.747,37.997,262.788,35.475"/>
	<path clip-path="url(#SVGID_2_)" fill="#1A1A1A" d="M66.692,114.037c-10.613-4.174-21.225-8.347-31.836-12.52
		c-2.58-1.015-3.688,3.138-1.142,4.139c10.612,4.173,21.225,8.347,31.836,12.52C68.13,119.19,69.237,115.038,66.692,114.037"/>
	<path clip-path="url(#SVGID_2_)" fill="#1A1A1A" d="M149.188,46.922c1.009,2.54,5.163,1.434,4.139-1.141
		c-3.935-9.897-7.87-19.794-11.805-29.69c-1.01-2.541-5.163-1.434-4.139,1.141C141.318,27.128,145.253,37.026,149.188,46.922"/>
	<path clip-path="url(#SVGID_2_)" fill="#1A1A1A" d="M375.197,270.352c-3.822-2.789-7.645-5.578-11.466-8.368
		c-2.239-1.635-4.378,2.093-2.165,3.707c3.82,2.789,7.643,5.578,11.465,8.368C375.271,275.694,377.409,271.967,375.197,270.352"/>
	<path clip-path="url(#SVGID_2_)" fill="#1A1A1A" d="M164.35,104.609c0.137-0.719,0.116-1.337-0.063-1.86
		c-0.179-0.521-0.446-0.947-0.803-1.281c-0.356-0.332-0.635-0.562-0.837-0.687c-0.938-0.582-1.96-0.786-3.066-0.614
		c-1.384,0.225-2.665,1.039-3.841,2.441l-5.694,6.777l-0.094,0.112c-0.019,0.024-0.136,0.161-0.342,0.408
		c-0.209,0.248-0.433,0.561-0.674,0.94c-0.24,0.38-0.458,0.812-0.651,1.294c-0.196,0.485-0.263,0.971-0.207,1.459
		c0.06,0.945,0.65,1.764,1.773,2.46c1.149,0.712,2.288,0.944,3.421,0.7c0.531-0.125,1.023-0.319,1.477-0.587
		c0.454-0.265,0.848-0.54,1.182-0.825c0.333-0.282,0.593-0.537,0.78-0.76c0.186-0.224,0.29-0.347,0.31-0.373l0.061-0.074l5.888-7.05
		C163.75,106.153,164.209,105.327,164.35,104.609"/>
	<path clip-path="url(#SVGID_2_)" fill="#1A1A1A" d="M252.079,97.506c-4.56-10.819-12.173-20.566-23.097-26.273
		c-30.506-15.938-74.83-8.792-99.772,17.712c-5.146,5.467-9.474,11.559-12.793,18.142c-8.269,16.399-9.319,33.74-2.961,48.829
		c4.451,10.563,12.369,19.369,22.898,25.468c10.384,6.015,22.867,9.193,36.099,9.193c11.586,0,23.108-2.38,34.244-7.072
		c18.651-7.858,33.627-21.229,42.17-37.648C257.271,129.705,258.411,112.534,252.079,97.506 M135.773,109.474
		c-0.329,0.252-0.706,0.398-1.13,0.438c-0.424,0.041-0.789-0.035-1.096-0.224l-0.076-0.048l-0.116-0.071
		c-0.307-0.19-0.504-0.463-0.591-0.819c-0.087-0.358-0.03-0.702,0.172-1.032l10.028-20.546c0.215-0.388,0.554-0.672,1.016-0.851
		c0.462-0.18,0.902-0.195,1.317-0.049c0.417,0.149,0.695,0.423,0.837,0.828c0.139,0.402,0.104,0.799-0.111,1.187l-7.203,15.043
		l14.481-10.52c0.365-0.293,0.788-0.451,1.266-0.47c0.478-0.02,0.864,0.117,1.158,0.41c0.318,0.308,0.446,0.679,0.392,1.11
		c-0.054,0.432-0.264,0.795-0.63,1.09L135.773,109.474z M147.628,118.712c-1.94-1.201-2.959-2.74-3.052-4.616
		c-0.09-1.417,0.368-2.93,1.371-4.536c0.3-0.493,0.584-0.901,0.855-1.224c0.272-0.321,0.434-0.559,0.564-0.668l5.67-6.735
		c0.953-1.132,2.001-1.976,3.071-2.582c1.069-0.607,2.128-1.006,3.173-1.195c1.044-0.19,2.042-0.187,2.991,0.012
		c0.949,0.197,1.803,0.532,2.562,1.003c0.455,0.281,1.003,0.753,1.643,1.409c0.639,0.657,1.074,1.542,1.3,2.649
		c0.069,0.378,0.106,0.794,0.114,1.244c0.007,0.452-0.068,0.957-0.223,1.513c-0.158,0.555-0.392,1.148-0.703,1.775
		c-0.314,0.63-0.757,1.289-1.331,1.98l-5.846,7.017c-0.083,0.1-0.253,0.304-0.512,0.614c-0.259,0.312-0.604,0.655-1.03,1.03
		c-1.398,1.212-2.891,2.006-4.481,2.383C151.615,120.274,149.569,119.914,147.628,118.712 M168.63,129.417
		c-0.29,0.334-0.698,0.527-1.23,0.584c-0.528,0.06-0.999-0.04-1.413-0.291l-7.338-4.465c-0.39-0.237-0.628-0.567-0.718-0.986
		c-0.09-0.418,0.001-0.79,0.272-1.114l14.345-17.196c0.293-0.351,0.711-0.581,1.256-0.682c0.545-0.102,1.036-0.046,1.471,0.172
		c0.47,0.235,0.748,0.564,0.836,0.989c0.088,0.423-0.019,0.814-0.316,1.168l-13.572,16.063l5.945,3.535
		c0.42,0.248,0.679,0.592,0.779,1.031C169.046,128.664,168.939,129.063,168.63,129.417 M174.481,135.384
		c-1.912-1.184-2.923-2.718-3.03-4.6c-0.083-1.489,0.359-3.007,1.328-4.557c0.294-0.497,0.574-0.908,0.841-1.232
		c0.267-0.323,0.451-0.548,0.554-0.673l9.941-12.078c0.283-0.345,0.664-0.566,1.142-0.659c0.479-0.095,0.894-0.031,1.246,0.189
		c0.38,0.233,0.597,0.563,0.647,0.985c0.054,0.424-0.063,0.808-0.345,1.152l-9.956,12.124l-0.092,0.113
		c-0.267,0.325-0.507,0.55-0.98,1.371c-0.225,0.389-0.43,0.827-0.617,1.313c-0.19,0.486-0.266,0.967-0.232,1.441
		c0.065,0.947,0.62,1.744,1.742,2.437c1.171,0.725,2.318,0.963,3.441,0.716c0.525-0.128,0.917-0.241,1.367-0.512
		c0.449-0.266,0.841-0.56,1.178-0.879c0.384-0.329,0.82-0.786,1.12-1.2l0.092-0.114l10.066-12.332
		c0.303-0.372,0.692-0.604,1.169-0.699c0.476-0.095,0.903-0.024,1.281,0.211c0.352,0.218,0.557,0.539,0.611,0.962
		c0.052,0.425-0.071,0.821-0.374,1.192l-10.049,12.342c-0.081,0.102-0.258,0.303-0.524,0.609c-0.267,0.304-0.612,0.646-1.034,1.024
		c-1.352,1.238-2.828,2.038-4.431,2.408C178.477,136.949,176.442,136.599,174.481,135.384 M188.717,141.283
		c-0.386,0.455-0.882,0.744-1.482,0.867c-0.603,0.124-1.141,0.043-1.618-0.238c-0.477-0.281-0.748-0.693-0.813-1.229
		c-0.068-0.572,0.094-1.085,0.481-1.539c0.387-0.457,0.88-0.746,1.483-0.869c0.602-0.12,1.141-0.041,1.615,0.242
		c0.476,0.282,0.748,0.705,0.819,1.276C189.267,140.328,189.106,140.824,188.717,141.283 M206.524,154.258
		c-0.466,0.108-0.892,0.043-1.272-0.191c-0.356-0.22-0.562-0.547-0.618-0.979c-0.056-0.431,0.058-0.821,0.342-1.177l9.886-12.382
		l-10.416,6.089c-0.708,0.474-1.463,0.443-1.977,0.127c-0.51-0.318-0.794-0.929-0.521-1.675l3.025-10.671l-9.948,12.351
		c-0.284,0.354-0.66,0.584-1.141,0.683c-0.479,0.099-0.889,0.045-1.246-0.175c-0.382-0.237-0.577-0.557-0.619-0.979
		c-0.041-0.423,0.06-0.822,0.346-1.175c0.055-0.07,0.111-0.139,0.166-0.205c12.521-15.514,14.12-17.509,14.27-17.701
		c-0.003,0.005-0.007,0.007-0.01,0.012c0,0,0.046-0.057,0.01-0.012c0.566-0.691,1.578-0.903,2.286-0.465
		c0.564,0.351,0.725,1.065,0.63,1.482c-0.013,0.052-0.03,0.105-0.048,0.159c-0.001,0.003-0.001,0.004-0.002,0.005l-3.749,14.068
		l13.808-7.829c0.003-0.001,0.003-0.003,0.005-0.004c0.051-0.033,0.1-0.065,0.151-0.095c0.415-0.22,1.228-0.33,1.792,0.02
		c0.71,0.441,0.825,1.362,0.266,2.064c0,0-14.06,17.646-14.305,17.955C207.351,153.913,206.989,154.152,206.524,154.258
		 M236.271,144.588c-0.295,0.374-0.678,0.61-1.148,0.708c-0.472,0.1-0.896,0.031-1.272-0.202l-6.82-4.229l-4.873,6.147l4.681,2.901
		c0.378,0.235,0.591,0.564,0.636,0.984s-0.082,0.817-0.381,1.195c-0.275,0.352-0.646,0.582-1.105,0.689
		c-0.463,0.108-0.883,0.043-1.261-0.19l-4.689-2.905l-5.056,6.382l6.871,4.254c0.379,0.236,0.599,0.569,0.655,1
		c0.059,0.432-0.064,0.837-0.362,1.218c-0.282,0.356-0.659,0.585-1.136,0.687c-0.477,0.1-0.906,0.034-1.286-0.201l-8.216-5.086
		c-0.381-0.237-0.599-0.57-0.654-1.001c-0.058-0.432,0.057-0.823,0.704-1.639l14.061-17.701c0.427-0.539,1.227-0.806,1.919-0.378
		l8.407,5.214c0.376,0.234,0.595,0.563,0.652,0.989C236.654,143.85,236.544,144.239,236.271,144.588"/>
</g>
</svg>
